HIERARCHY
ROOT Hips
{
  OFFSET 0 0 0
  CHANNELS 6 Xposition Yposition Zposition Zrotation Yrotation Xrotation
  JOINT LeftThigh
  {
    OFFSET 8.409438 0 -5.917753
    CHANNELS 3 Zrotation Yrotation Xrotation
    JOINT LeftLeg
    {
      OFFSET 0 0 -42.358652
      CHANNELS 3 Zrotation Yrotation Xrotation
      JOINT LeftFoot
      {
        OFFSET 0 0 -39.357303
        CHANNELS 3 Zrotation Yrotation Xrotation
      }
    }
  }
  JOINT RightThigh
  {
    OFFSET -8.409438 0 -5.917753
    CHANNELS 3 Zrotation Yrotation Xrotation
    JOINT RightLeg
    {
      OFFSET 0 0 -42.358652
      CHANNELS 3 Zrotation Yrotation Xrotation
      JOINT RightFoot
      {
        OFFSET 0 0 -39.357303
        CHANNELS 3 Zrotation Yrotation Xrotation
      }
    }
  }
  JOINT SpineLow
  {
    OFFSET 0 0 4.719101
    CHANNELS 3 Zrotation Yrotation Xrotation
    JOINT SpineMid
    {
      OFFSET 0 0 12.899191
      CHANNELS 3 Zrotation Yrotation Xrotation
      JOINT Chest
      {
        OFFSET 0 0 12.899191
        CHANNELS 3 Zrotation Yrotation Xrotation
        JOINT LeftShoulder
        {
          OFFSET 7.550562 1.41573 9.438202
          CHANNELS 3 Zrotation Yrotation Xrotation
          JOINT LeftArm
          {
            OFFSET 9.155056 0 4.247191
            CHANNELS 3 Zrotation Yrotation Xrotation
            JOINT LeftForearm
            {
              OFFSET 0 0 25.771955
              CHANNELS 3 Zrotation Yrotation Xrotation
              JOINT LeftHand
              {
                OFFSET 0 0 25.197169
                CHANNELS 3 Zrotation Yrotation Xrotation
              }
            }
          }
        }
        JOINT RightShoulder
        {
          OFFSET -7.550562 1.41573 9.438202
          CHANNELS 3 Zrotation Yrotation Xrotation
          JOINT RightArm
          {
            OFFSET -9.155056 0 4.247191
            CHANNELS 3 Zrotation Yrotation Xrotation
            JOINT RightForearm
            {
              OFFSET 0 0 -25.771955
              CHANNELS 3 Zrotation Yrotation Xrotation
              JOINT RightHand
              {
                OFFSET 0 0 -25.197169
                CHANNELS 3 Zrotation Yrotation Xrotation
              }
            }
          }
        }
        JOINT Neck
        {
          OFFSET 0 0 15.101124
          CHANNELS 3 Zrotation Yrotation Xrotation
          JOINT Head
          {
            OFFSET 0 0 11.325843
            CHANNELS 3 Zrotation Yrotation Xrotation
            End Site
            {
              OFFSET 0 0 14.157303
            }
          }
        }
      }
    }
  }
}
MOTION
Frames: 16
Frame Time: 0.0
0.0  101.685394  0.0  8.958242  44.015937  -89.730853  -6.592863  -11.00708  -8.664804  -12.719641  14.963465  24.895863  4.033967  3.17347  2.390169  -38.760761  22.880663  -14.047572  -4.995577  10.13713  29.151309  2.46984  3.358056  -4.468032  0.680182  1.439773  2.342168  1.998788  3.864954  6.448825  1.998788  3.864954  6.448825  32.595208  20.511092  19.496875  170.409717  23.642198  -171.099834  -13.046278  -9.192452  128.023309  82.254207  6.406055  -8.080936  34.58084  -0.709124  15.161097  123.619878  40.580903  78.823329  -81.718172  50.573028  -88.962747  87.146929  27.616302  8.370964  -13.178171  -2.610991  -1.259126  -9.887343  -1.932167  -1.001083  
0.0  101.685394  0.0  8.378086  41.974481  -90.420164  -5.329073  -11.211624  -7.933992  -12.571682  14.537311  24.637276  4.236123  3.320212  2.483472  -39.472424  22.532173  -14.372966  -4.017656  10.02123  28.437986  3.501128  3.219248  -4.37402  0.74621  1.501681  2.344889  2.185642  4.027396  6.462593  2.185642  4.027396  6.462593  31.915318  20.635782  19.905849  170.284893  23.942001  -170.165061  -13.388802  -11.098622  127.52778  82.215677  6.614314  -7.767501  33.421961  -0.546738  15.357987  123.665086  40.27045  76.713751  -82.545298  50.021517  -88.918132  87.471288  27.384287  8.720075  -12.621197  -2.720715  -1.061151  -9.468874  -2.01965  -0.852383  
0.0  101.685394  0.0  8.554083  40.654092  -90.465373  -4.749512  -10.80211  -7.394518  -12.632264  14.095259  24.280613  4.482983  3.476144  2.617505  -41.20193  22.472321  -15.298187  -3.059992  9.958033  27.79933  4.562959  3.04808  -4.263207  0.666179  1.629688  2.323154  1.978322  4.385406  6.403187  1.978322  4.385405  6.403187  31.160354  20.743826  20.328288  170.283211  24.171401  -169.292988  -6.58829  -11.306006  131.279356  86.74759  11.958424  -12.756115  32.186827  -0.437926  15.56349  123.565195  40.138805  74.492861  -83.40766  49.051462  -89.066216  87.935332  27.079574  9.067079  -12.12493  -2.738966  -0.760639  -9.095389  -2.04009  -0.625051  
0.0  101.685394  0.0  8.01081  38.146758  -91.334068  -2.979727  -11.026141  -6.373185  -12.716109  13.799909  23.944131  4.79094  3.568317  2.745575  -41.279271  22.233809  -15.542697  -2.07705  9.797446  27.320494  5.574919  2.864081  -4.121798  0.7276  1.682725  2.368201  2.154618  4.522673  6.532684  2.154618  4.522673  6.532684  30.459863  21.039663  20.551621  170.387833  24.393796  -168.393055  -6.840208  -12.722215  131.019293  86.600754  12.466935  -12.947877  31.009063  -0.175595  15.590151  123.34973  40.273892  72.15428  -84.059305  47.654318  -89.257392  88.544939  26.784411  9.411881  -11.408879  -2.739134  -0.528759  -8.557405  -2.045327  -0.447857  
0.0  101.685394  0.0  7.517738  35.528202  -92.181843  -1.287028  -11.319664  -5.444201  -12.822631  13.660026  23.585758  5.409887  3.625206  3.006032  -41.086979  21.951517  -15.791889  -1.924969  9.723826  26.874193  7.2476  2.968286  -3.967481  0.798918  1.720995  2.432189  2.357961  4.617657  6.71434  2.357961  4.617657  6.71434  29.537841  21.417518  20.600439  170.495549  24.548053  -167.540884  -7.024505  -13.910603  130.701408  86.785529  13.027967  -13.315305  31.856082  -0.448937  15.622195  120.595164  40.767402  69.693805  -84.458857  46.105282  -89.48966  89.024249  26.516189  9.78197  -10.749692  -2.652022  -0.328875  -8.062257  -1.98396  -0.293405  
0.0  101.685394  0.0  6.896929  32.703705  -93.113578  0.543901  -11.90076  -4.473247  -12.555938  13.499914  23.469006  5.632806  3.732849  3.128254  -40.43554  21.604388  -15.826108  -0.741639  9.348841  26.633576  7.774499  2.804147  -3.812213  0.83061  1.719939  2.45724  2.446229  4.610562  6.785038  2.446229  4.610562  6.785038  29.019644  21.80579  20.821442  170.59068  24.710523  -166.716866  -7.201016  -15.119434  130.324893  87.14087  13.684789  -13.932995  30.591924  -0.077518  15.744066  119.919287  41.352496  66.956878  -84.756742  44.618559  -89.869542  89.186869  26.198147  10.222747  -9.741946  -2.475773  0.001951  -7.305314  -1.85742  -0.038041  
0.0  101.685394  0.0  6.223797  29.679834  -94.142145  2.274869  -12.568345  -3.559837  -12.020101  13.318681  23.507848  5.799737  3.833011  3.283311  -39.418004  21.146841  -15.63378  0.540131  8.917641  26.443015  8.33711  2.709887  -3.656662  0.91442  1.685144  2.484287  2.673473  4.50579  6.863064  2.673473  4.50579  6.863064  28.233798  22.187284  21.101185  170.653421  24.893974  -165.872755  -7.369343  -16.319869  129.8802  87.823845  14.504748  -14.786041  29.060735  0.254278  15.934538  118.895167  42.041539  64.111009  -85.050884  43.116941  -90.420988  89.047154  25.818982  10.703582  -8.948983  -2.191202  0.394045  -6.709509  -1.649591  0.263462  
0.0  101.685394  0.0  5.599244  26.689791  -95.07722  4.102923  -13.396764  -2.657265  -11.529437  13.297446  23.545771  5.981501  3.876609  3.426099  -38.358189  20.636014  -15.381555  1.866851  8.519276  26.222227  8.36967  2.541419  -3.53875  0.927078  1.649233  2.483153  2.70413  4.4065  6.859001  2.70413  4.4065  6.859002  27.797511  22.533455  21.455144  170.680437  25.149841  -165.013387  -7.617062  -17.421145  129.314207  88.743711  15.164762  -15.779597  27.69665  0.536226  16.252925  117.714585  42.79701  61.214274  -85.267864  41.538149  -91.114316  88.708043  25.292613  11.271527  -7.795671  -1.994626  0.837896  -5.843441  -1.506951  0.603021  
0.0  101.685394  0.0  4.913708  23.375765  -96.148134  6.4328  -14.519878  -1.550875  -11.377883  13.454703  23.374055  6.224218  3.8968  3.578222  -37.146417  19.668093  -14.943727  4.043672  8.055667  26.182733  8.29523  2.474416  -3.474193  1.041671  1.594449  2.547002  3.015488  4.241984  7.038184  3.015488  4.241984  7.038184  26.72251  22.995114  21.414508  170.751093  25.506117  -164.183309  -8.023293  -18.339156  128.891478  89.720743  15.763971  -16.936469  25.875642  0.903399  16.285721  116.243775  43.558098  58.221363  -85.254149  39.795572  -91.652571  88.285708  24.79637  11.959156  -6.962298  -1.794344  1.158897  -5.217916  -1.359175  0.848783  
0.0  101.685394  0.0  4.413366  20.56918  -96.86046  8.20183  -15.403366  -0.910338  -10.935107  13.534361  23.549307  6.448589  3.937554  3.688898  -35.801989  19.063675  -14.432496  4.922167  7.90851  25.7723  8.337669  2.175897  -3.347755  1.020284  1.557136  2.539979  2.952477  4.14277  7.01562  2.952477  4.14277  7.01562  25.974827  23.407395  21.544283  170.887136  25.992796  -163.297086  -8.62739  -19.114766  128.677458  90.436343  16.314249  -18.359863  24.294517  1.181397  16.472713  114.48458  44.231024  55.141314  -84.912508  38.042963  -91.926791  87.784924  24.373532  12.772369  -5.853751  -1.702175  1.568755  -4.385655  -1.291807  1.160297  
0.0  101.685394  0.0  3.650394  17.05949  -97.945418  10.931869  -16.856307  0.067563  -10.918694  13.786042  23.507632  6.732487  3.900929  3.768401  -33.146703  18.380704  -13.128734  5.391359  7.793349  25.209704  8.51256  1.884813  -3.200407  1.160755  1.469619  2.586436  3.329383  3.886514  7.146115  3.329383  3.886514  7.146115  24.786616  23.835319  21.565653  171.120336  26.657421  -162.266908  -8.8829  -19.672975  128.454786  91.164664  16.931681  -20.42998  22.378885  1.368271  16.449969  112.362129  44.719075  51.986715  -84.326376  36.23691  -91.852672  87.300247  24.102531  13.547515  -4.963253  -1.679337  1.932109  -3.716908  -1.275307  1.435448  
0.0  101.685394  0.0  3.257015  14.65688  -98.506913  12.499119  -17.791529  0.433803  -10.433466  13.945479  23.865544  6.826729  3.902001  3.870991  -30.940208  17.953058  -12.102409  5.269686  7.718267  24.526516  8.432171  1.6111  -3.060825  1.073434  1.425884  2.576275  3.085316  3.777146  7.110901  3.085316  3.777147  7.110901  23.871882  24.408861  21.679372  171.408437  27.573363  -161.141081  -9.001642  -19.89706  128.148748  91.769332  17.338015  -22.925428  20.844128  1.567068  16.43483  109.914203  45.037143  48.856535  -83.596014  34.347471  -91.488208  86.808057  24.00699  14.07344  -3.926131  -1.64324  2.271072  -2.938337  -1.2471  1.692711  
0.0  101.685394  0.0  2.842164  12.331907  -99.124672  14.182437  -18.777119  0.783312  -9.949859  14.155014  24.362495  6.765569  3.791671  3.902441  -27.799525  17.504731  -10.777615  4.514277  7.740054  23.957396  8.613732  1.309121  -2.913511  0.968124  1.368814  2.584817  2.791699  3.632404  7.125516  2.791699  3.632404  7.125515  22.975911  25.069003  21.820058  171.698531  28.777606  -159.918666  -9.259177  -19.849072  127.934654  92.202099  17.51323  -25.448818  19.305191  1.793512  16.220435  107.290094  45.107137  45.812917  -82.577151  32.423522  -90.921782  86.259347  24.065115  14.33116  -2.878506  -1.602963  2.490913  -2.152246  -1.214009  1.860561  
0.0  101.685394  0.0  2.513075  10.265574  -99.708328  15.734893  -19.556138  0.970511  -9.723441  14.165802  24.870742  6.721587  3.741784  3.9692  -24.40991  17.00199  -9.477905  3.652326  7.83419  23.613909  8.283767  1.153833  -2.91167  0.787178  1.315757  2.578338  2.291122  3.507405  7.095792  2.291122  3.507406  7.095792  22.33596  25.772703  22.000605  172.100724  30.220177  -158.723455  -9.520287  -19.482539  127.814506  92.62826  17.47867  -27.726055  17.898275  2.076957  16.236932  104.660885  45.175425  42.990616  -81.347237  30.464533  -90.33809  85.724342  24.115414  14.377333  -1.700314  -1.518023  2.663264  -1.268573  -1.145962  1.993125  
0.0  101.685394  0.0  2.115665  8.38689  -100.256567  17.289877  -20.278441  0.980094  -9.738658  14.084974  25.452803  6.711021  3.705825  3.998054  -21.280829  16.253019  -8.273146  3.024146  7.973664  23.424487  7.816091  1.026525  -2.979081  0.54117  1.24762  2.569353  1.611123  3.348116  7.056182  1.611123  3.348116  7.056182  21.833441  26.310929  21.701474  172.515428  31.596656  -157.88897  -9.700121  -18.896075  127.813461  93.135614  17.334145  -29.55168  16.557227  2.529784  16.24038  102.170208  45.128715  40.420254  -79.977839  28.494164  -89.730661  85.264734  24.126553  14.379087  -0.375514  -1.38918  2.761628  -0.27535  -1.043607  2.070267  
0.0  101.685394  0.0  1.801279  6.667515  -100.82898  18.775209  -20.879521  0.936082  -9.863193  13.934212  26.10875  6.695877  3.674209  4.003171  -18.526504  15.534648  -7.192568  2.691484  8.073989  23.310814  7.394341  1.038545  -3.03325  0.227729  1.192365  2.578212  0.749308  3.230636  7.063644  0.749308  3.230636  7.063644  21.613968  27.388375  21.556794  173.462615  33.681542  -156.732789  -9.904141  -18.27876  127.879111  93.690254  17.221023  -30.751869  15.455208  3.073871  16.17132  99.85558  44.913608  38.177448  -78.467933  26.67456  -89.004817  84.864055  24.25748  14.521285  1.081685  -1.226412  2.779823  0.816832  -0.914915  2.086966  
